<?xml version="1.0" encoding="UTF-8" standalone="no"?>
<!-- Created with Inkscape (http://www.inkscape.org/) -->

<svg
   xmlns:dc="http://purl.org/dc/elements/1.1/"
   xmlns:cc="http://creativecommons.org/ns#"
   xmlns:rdf="http://www.w3.org/1999/02/22-rdf-syntax-ns#"
   xmlns:svg="http://www.w3.org/2000/svg"
   xmlns="http://www.w3.org/2000/svg"
   xmlns:sodipodi="http://sodipodi.sourceforge.net/DTD/sodipodi-0.dtd"
   xmlns:inkscape="http://www.inkscape.org/namespaces/inkscape"
   width="132.16821mm"
   height="32.451702mm"
   viewBox="0 0 132.16821 32.451702"
   version="1.1"
   id="svg338"
   inkscape:version="0.92.4 (5da689c313, 2019-01-14)"
   sodipodi:docname="left.svg">
  <defs
     id="defs332" />
  <sodipodi:namedview
     id="base"
     pagecolor="#ffffff"
     bordercolor="#666666"
     borderopacity="1.0"
     inkscape:pageopacity="0.0"
     inkscape:pageshadow="2"
     inkscape:zoom="1.4"
     inkscape:cx="504.25092"
     inkscape:cy="-219.57885"
     inkscape:document-units="mm"
     inkscape:current-layer="layer1"
     showgrid="false"
     inkscape:window-width="3060"
     inkscape:window-height="1672"
     inkscape:window-x="140"
     inkscape:window-y="54"
     inkscape:window-maximized="1" />
  <metadata
     id="metadata335">
    <rdf:RDF>
      <cc:Work
         rdf:about="">
        <dc:format>image/svg+xml</dc:format>
        <dc:type
           rdf:resource="http://purl.org/dc/dcmitype/StillImage" />
        <dc:title></dc:title>
      </cc:Work>
    </rdf:RDF>
  </metadata>
  <g
     inkscape:label="Layer 1"
     inkscape:groupmode="layer"
     id="layer1"
     transform="translate(-5.0352817,-5.7586113)">
    <path
       d="m 79.4506,14.286983 c -11.90625,-8.7312503 -27.51667,-3.30729 -38.23229,4.7625 -5.87375,4.445 -10.55688,10.16 -16.77459,14.18167 -4.41854,2.8575 -9.31333,3.54542 -14.10229,1.24354 -6.2706205,-2.98979 -3.1485408,-10.4775 0.71438,-13.75833 0.42333,-0.34396 -0.13229,-1.08479 -0.58209,-0.74084 -4.7360408,3.4925 -8.2550005,11.27125 -2.3018708,15.63688 8.1227108,5.97958 17.0127108,0.50271 23.6272908,-5.02708 9.49854,-7.96396 22.91292,-16.56292 36.00979,-14.7373 3.54542,0.50271 12.19729,3.81 11.45646,8.67834 -0.44979,2.98979 -4.47146,5.26521 -7.19667,5.29166 -3.14854,0.0265 -5.97958,-4.70958 -2.16958,-6.27062 0.71438,-0.29104 0.74083,-1.64042 -0.21167,-1.50813 -6.985,0.87313 -3.06916,10.63626 2.3548,11.27126 11.16541,1.34937 16.27187,-12.5148 7.40833,-19.02355 z"
       id="path249"
       inkscape:connector-curvature="0"
       style="fill:#0c153a;stroke-width:0.26458332" />
    <path
       d="m 113.79351,14.895523 c -0.23812,4.31271 3.94229,9.47209 8.33438,9.78959 4.9477,0.37041 8.38729,-4.02167 7.4877,-8.67834 -0.13229,-0.66145 -0.79375,-1.32291 -1.4552,-1.4552 -2.8575,-0.58209 -4.49792,0.0529 -5.97959,2.64583 -0.23812,0.39687 -0.29104,0.79375 -0.29104,1.16417 -1.16417,-0.71438 -1.905,-2.0373 -2.30187,-3.28084 -1.82563,-5.6091603 6.61458,-7.1437503 10.05416,-5.3975003 4.89479,2.4606303 5.92667,8.2285403 3.65125,12.7793803 -2.09021,4.15396 -6.6675,6.08541 -11.03312,6.56166 -16.40417,1.79917 -26.246664,-12.46187 -39.92562,-17.93875 -0.29104,-0.13229 -0.50271,0.37042 -0.21167,0.50271 7.48771,3.73063 11.87979,11.1125 18.75896,15.71625 4.97416,3.30729 10.74208,5.10646 16.61583,5.76792 11.00666,1.21708 23.62729,-8.33438 18.54729,-20.08188 -4.23333,-9.7102003 -21.59,-10.1864503 -22.25146,1.905 z"
       id="path251"
       inkscape:connector-curvature="0"
       style="fill:#0c153a;stroke-width:0.26458332" />
    <path
       d="m 86.27685,18.599693 c -0.26458,-0.10583 -0.635,0.0529 -0.68792,0.42333 -0.9525,7.80521 3.09563,14.20813 10.689166,16.6423 0.55562,0.18521 1.32292,-0.3175 1.24354,-0.92604 -0.84667,-6.82626 -5.714996,-11.16542 -10.054166,-16.03376 -0.37041,-0.42333 -0.84666,-0.37041 -1.19062,-0.10583 z m 9.392706,14.605 c -2.434166,-1.27 -4.656666,-2.69875 -6.297086,-5.05354 -1.50812,-2.11667 -2.27541,-4.84188 -2.64583,-7.46125 3.65125,3.4925 8.889996,7.17021 8.942916,12.51479 z"
       id="path253"
       inkscape:connector-curvature="0"
       style="fill:#0c153a;stroke-width:0.26458332" />
    <path
       d="m 87.3881,10.715113 c 5.15937,4.78896 15.00187,5.95312 21.06083,2.32833 0.42333,-0.26458 0.52916,-0.87312 0.15875,-1.21708 -4.97416,-4.8418803 -14.94896,-6.5881303 -20.92854,-2.7516703 -0.42333,0.26458 -0.52917,0.71438 -0.42333,1.0847903 -0.0529,0.21167 -0.0265,0.42334 0.13229,0.55563 z m 19.31458,1.50812 c -5.26521,2.48709 -12.59416,1.37584 -17.51541,-1.71979 4.97416,-2.6987503 13.07041,-1.8520803 17.51541,1.71979 z"
       id="path255"
       inkscape:connector-curvature="0"
       style="fill:#0c153a;stroke-width:0.26458332" />
    <path
       d="m 13.35768,30.717613 c 9.65729,3.28083 15.50459,-4.07459 20.71688,-11.03313 0.10583,-0.0794 0.21166,-0.15875 0.3175,-0.23812 3.94229,-3.175 4.20687,-6.05896 -0.87313,-7.72584 -2.8575,-0.9525 -2.83104,4.39209 0,3.43959 0.52917,-0.18521 3.67771,-1.34938 2.46063,0.89958 -0.66146,1.19063 -2.09021,2.01083 -3.22792,2.64583 -2.46062,1.4023 -5.47687,1.5875 -8.09625,2.64584 -4.49792,1.82562 -8.49312,4.25979 -11.64167,7.99041 -0.26458,0.29105 -0.21166,0.635 -0.0529,0.89959 0,0.18521 0.13229,0.39687 0.39687,0.47625 z m 11.85334,-7.35542 c 1.95791,-0.60854 3.78354,-1.05833 5.50333,-1.77271 -1.11125,1.13771 -2.19604,2.30188 -3.30729,3.43959 -3.75709,3.81 -7.59354,5.34458 -12.77938,4.7625 3.20146,-2.88396 6.35,-5.13292 10.58334,-6.42938 z"
       id="path257"
       inkscape:connector-curvature="0"
       style="fill:#0c153a;stroke-width:0.26458332" />
  </g>
</svg>
