<?xml version="1.0" encoding="UTF-8" standalone="no"?>
<!-- Created with Inkscape (http://www.inkscape.org/) -->

<svg
   xmlns:dc="http://purl.org/dc/elements/1.1/"
   xmlns:cc="http://creativecommons.org/ns#"
   xmlns:rdf="http://www.w3.org/1999/02/22-rdf-syntax-ns#"
   xmlns:svg="http://www.w3.org/2000/svg"
   xmlns="http://www.w3.org/2000/svg"
   xmlns:sodipodi="http://sodipodi.sourceforge.net/DTD/sodipodi-0.dtd"
   xmlns:inkscape="http://www.inkscape.org/namespaces/inkscape"
   width="132.11528mm"
   height="32.534725mm"
   viewBox="0 0 132.11528 32.534725"
   version="1.1"
   id="svg370"
   inkscape:version="0.92.4 (5da689c313, 2019-01-14)"
   sodipodi:docname="right.svg">
  <defs
     id="defs364" />
  <sodipodi:namedview
     id="base"
     pagecolor="#ffffff"
     bordercolor="#666666"
     borderopacity="1.0"
     inkscape:pageopacity="0.0"
     inkscape:pageshadow="2"
     inkscape:zoom="0.35"
     inkscape:cx="-487.47618"
     inkscape:cy="-412.80276"
     inkscape:document-units="mm"
     inkscape:current-layer="layer1"
     showgrid="false"
     inkscape:window-width="3060"
     inkscape:window-height="1672"
     inkscape:window-x="140"
     inkscape:window-y="54"
     inkscape:window-maximized="1" />
  <metadata
     id="metadata367">
    <rdf:RDF>
      <cc:Work
         rdf:about="">
        <dc:format>image/svg+xml</dc:format>
        <dc:type
           rdf:resource="http://purl.org/dc/dcmitype/StillImage" />
        <dc:title></dc:title>
      </cc:Work>
    </rdf:RDF>
  </metadata>
  <g
     inkscape:label="Layer 1"
     inkscape:groupmode="layer"
     id="layer1"
     transform="translate(-4.2459293,-7.0778771)">
    <path
       d="m 130.92278,21.324895 c -0.44979,-0.3175 -0.97896,0.39688 -0.58208,0.74084 3.83645,3.25437 6.95853,10.76854 0.71437,13.75833 -4.81542,2.27542 -9.71021,1.61396 -14.10229,-1.24354 -6.21771,-4.04813 -10.90083,-9.76313 -16.77458,-14.18167 -10.715632,-8.06979 -26.299592,-13.4937502 -38.232302,-4.7625 -8.86354,6.48229 -3.75708,20.37292 7.40834,19.07646 5.42396,-0.635 9.36625,-10.39813 2.35479,-11.27125 -0.9525,-0.10583 -0.92604,1.21708 -0.21167,1.50812 3.83646,1.56105 0.97896,6.29709 -2.16958,6.27063 -2.72521,-0.0265 -6.74688,-2.30188 -7.19667,-5.29167 -0.74083,-4.86833 7.88459,-8.17562 11.45646,-8.67833 13.12333,-1.85208 26.511252,6.74687 36.009792,14.73729 6.58813,5.52979 15.47813,11.00667 23.62729,5.02709 5.95312,-4.41855 2.43417,-12.1973 -2.30187,-15.6898 z"
       id="path259"
       inkscape:connector-curvature="0"
       style="fill:#0c153a;stroke-width:0.26458332" />
    <path
       d="m 59.300068,12.911145 c 0.29104,-0.13229 0.0794,-0.635 -0.21167,-0.50271 -13.67895,5.47688 -23.52145,19.71146 -39.92562,17.93875 -4.36563,-0.47625 -8.94292,-2.4077 -11.0331309,-6.56166 -2.30187,-4.57729 -1.24354,-10.31875 3.6512509,-12.77938 3.43959,-1.7462502 11.85334,-0.18521 10.05417,5.3975 -0.39687,1.24354 -1.16417,2.56646 -2.30187,3.28084 0.0265,-0.37042 -0.0529,-0.7673 -0.29105,-1.16417 -1.4552,-2.59292 -3.12208,-3.22792 -5.979581,-2.64583 -0.661459,0.13229 -1.322919,0.79375 -1.455209,1.4552 -0.899581,4.65667 2.54,9.04875 7.48771,8.67834 4.36563,-0.3175 8.54604,-5.47688 8.33438,-9.78959 C 26.967988,4.1269848 9.6113171,4.6032348 5.4044471,14.286985 c -5.08,11.7475 7.5406199,21.29896 18.5472909,20.08187 5.90021,-0.66146 11.66812,-2.46062 16.61583,-5.76792 6.87917,-4.57729 11.24479,-11.95916 18.7325,-15.68979 z"
       id="path261"
       inkscape:connector-curvature="0"
       style="fill:#0c153a;stroke-width:0.26458332" />
    <path
       d="m 55.119648,19.922605 c -0.34395,-0.26458 -0.8202,-0.3175 -1.19062,0.10583 -4.33917,4.86834 -9.2075,9.2075 -10.05417,16.03376 -0.0794,0.635 0.68792,1.11125 1.24354,0.92604 7.59355,-2.43417 11.64167,-8.83709 10.68917,-16.6423 -0.0529,-0.39687 -0.42333,-0.55562 -0.68792,-0.42333 z m -3.09562,9.55146 c -1.66688,2.32833 -3.86292,3.78354 -6.29708,5.05354 0.0529,-5.34458 5.29166,-9.02229 8.94291,-12.51479 -0.37041,2.61937 -1.13771,5.34458 -2.64583,7.46125 z"
       id="path263"
       inkscape:connector-curvature="0"
       style="fill:#0c153a;stroke-width:0.26458332" />
    <path
       d="m 32.947568,14.392815 c 6.05896,3.62479 15.90146,2.46062 21.06083,-2.32833 0.15875,-0.15875 0.18521,-0.34396 0.1323,-0.52917 0.10583,-0.37042 0,-0.82021 -0.42334,-1.08479 -5.97958,-3.8364602 -15.98083,-2.0902102 -20.92854,2.75166 -0.34396,0.3175 -0.26458,0.92605 0.15875,1.19063 z m 19.26167,-2.54 c -4.89479,3.06917 -12.25021,4.18042 -17.51542,1.71979 4.445,-3.5983302 12.54125,-4.4450002 17.51542,-1.71979 z"
       id="path265"
       inkscape:connector-curvature="0"
       style="fill:#0c153a;stroke-width:0.26458332" />
    <path
       d="m 107.00445,20.769275 c 0.10583,0.0794 0.21166,0.15875 0.3175,0.23812 5.21229,6.95854 11.05958,14.2875 20.71687,11.03313 0.26458,-0.0794 0.37042,-0.29104 0.39688,-0.50271 0.1852,-0.23813 0.21166,-0.58208 -0.0529,-0.89958 -3.14854,-3.73063 -7.14375,-6.19125 -11.64167,-7.99042 -2.61937,-1.05833 -5.63562,-1.24354 -8.09625,-2.64583 -1.13771,-0.635 -2.56646,-1.48167 -3.22791,-2.64584 -1.21709,-2.2225 1.93145,-1.05833 2.46062,-0.89958 2.83104,0.9525 2.8575,-4.36563 0,-3.43958 -5.08,1.71979 -4.84187,4.60375 -0.87312,7.75229 z m 9.18104,3.91583 c 4.23333,1.29646 7.35541,3.57188 10.58333,6.42938 -5.18583,0.58208 -9.02229,-0.9525 -12.77937,-4.7625 -1.11125,-1.13771 -2.19605,-2.30188 -3.3073,-3.43959 1.74625,0.68792 3.54542,1.16417 5.50334,1.77271 z"
       id="path267"
       inkscape:connector-curvature="0"
       style="fill:#0c153a;stroke-width:0.26458332" />
  </g>
</svg>
